{"glyphs":{"0":{"ha":569,"x_min":0,"x_max":528,"o":"m 0 436 l 0 94 l 43 51 l 85 94 l 85 436 l 43 479 l 0 436 m 0 536 l 0 536 l 43 494 l 85 536 l 85 879 l 43 922 l 0 879 l 0 536 m 435 886 l 478 929 l 435 972 l 93 972 l 50 929 l 93 886 l 435 886 m 443 436 l 443 94 l 486 51 l 528 94 l 528 436 l 486 479 l 443 436 m 93 86 l 93 86 l 50 43 l 93 1 l 435 1 l 478 43 l 435 86 l 93 86 m 443 536 l 443 536 l 486 494 l 528 536 l 528 879 l 486 922 l 443 879 l 443 536 "},"1":{"ha":167,"x_min":41,"x_max":126,"o":"m 41 437 l 41 45 l 83 3 l 126 45 l 126 437 l 83 480 l 41 437 m 83 972 l 41 930 l 41 538 l 83 495 l 126 538 l 126 930 l 83 972 "},"2":{"ha":609,"x_min":41,"x_max":568,"o":"m 41 435 l 41 435 l 83 478 l 126 435 l 126 94 l 83 51 l 41 94 l 41 435 m 91 486 l 91 486 l 134 443 l 475 443 l 518 486 l 475 528 l 134 528 l 91 486 m 91 928 l 91 928 l 134 885 l 475 885 l 518 928 l 475 970 l 134 970 l 91 928 m 568 878 l 568 878 l 568 536 l 526 493 l 483 536 l 483 878 l 526 920 l 568 878 m 475 86 l 475 86 l 134 86 l 91 43 l 134 1 l 475 1 l 518 43 l 475 86 "},"3":{"ha":559,"x_min":41,"x_max":518,"o":"m 518 94 l 518 94 l 518 435 l 475 478 l 433 435 l 433 94 l 475 51 l 518 94 m 518 536 l 518 878 l 475 920 l 433 878 l 433 536 l 475 493 l 518 536 m 469 928 l 425 970 l 83 970 l 41 928 l 83 885 l 425 885 l 469 928 m 469 486 l 425 528 l 83 528 l 41 486 l 83 443 l 425 443 l 469 486 m 425 86 l 425 86 l 83 86 l 41 43 l 83 1 l 425 1 l 469 43 l 425 86 "},"4":{"ha":609,"x_min":41,"x_max":568,"o":"m 475 527 l 134 527 l 91 484 l 134 441 l 475 441 l 518 484 l 475 527 m 483 434 l 483 42 l 526 -1 l 568 42 l 568 434 l 526 477 l 483 434 m 126 926 l 83 969 l 41 926 l 41 534 l 83 492 l 126 534 l 126 926 m 526 969 l 483 926 l 483 534 l 526 492 l 568 534 l 568 926 l 526 969 "},"5":{"ha":609,"x_min":41,"x_max":568,"o":"m 475 970 l 475 970 l 134 970 l 91 928 l 134 885 l 475 885 l 518 928 l 475 970 m 475 528 l 475 528 l 134 528 l 91 486 l 134 443 l 475 443 l 518 486 l 475 528 m 526 478 l 526 478 l 483 435 l 483 94 l 526 51 l 568 94 l 568 435 l 526 478 m 475 86 l 475 86 l 134 86 l 91 43 l 134 1 l 475 1 l 518 43 l 475 86 m 41 878 l 41 878 l 41 536 l 83 493 l 126 536 l 126 878 l 83 920 l 41 878 "},"6":{"ha":609,"x_min":41,"x_max":568,"o":"m 126 435 l 126 94 l 83 51 l 41 94 l 41 435 l 83 478 l 126 435 m 134 86 l 475 86 l 518 43 l 475 1 l 134 1 l 91 43 l 134 86 m 134 443 l 91 486 l 134 528 l 475 528 l 518 486 l 475 443 l 134 443 m 526 478 l 568 435 l 568 94 l 526 51 l 483 94 l 483 435 l 526 478 m 475 970 l 134 970 l 91 928 l 134 885 l 475 885 l 518 928 l 475 970 m 41 878 l 41 536 l 83 493 l 126 536 l 126 878 l 83 920 l 41 878 "},"7":{"ha":559,"x_min":41,"x_max":518,"o":"m 425 971 l 83 971 l 41 928 l 83 886 l 425 886 l 469 928 l 425 971 m 475 921 l 433 878 l 433 536 l 475 494 l 518 536 l 518 878 l 475 921 m 433 436 l 433 44 l 475 1 l 518 44 l 518 436 l 475 479 l 433 436 "},"8":{"ha":609,"x_min":41,"x_max":568,"o":"m 134 528 l 134 528 l 91 486 l 134 443 l 475 443 l 518 486 l 475 528 l 134 528 m 83 493 l 83 493 l 126 536 l 126 878 l 83 920 l 41 878 l 41 536 l 83 493 m 83 478 l 83 478 l 126 435 l 126 94 l 83 51 l 41 94 l 41 435 l 83 478 m 91 43 l 91 43 l 134 86 l 475 86 l 518 43 l 475 1 l 134 1 l 91 43 m 134 970 l 134 970 l 91 928 l 134 885 l 475 885 l 518 928 l 475 970 l 134 970 m 526 478 l 526 478 l 483 435 l 483 94 l 526 51 l 568 94 l 568 435 l 526 478 m 483 878 l 483 878 l 483 536 l 526 493 l 568 536 l 568 878 l 526 920 l 483 878 "},"9":{"ha":609,"x_min":41,"x_max":568,"o":"m 134 443 l 475 443 l 518 486 l 475 528 l 134 528 l 91 486 l 134 443 m 83 493 l 83 493 l 126 536 l 126 878 l 83 920 l 41 878 l 41 536 l 83 493 m 134 86 l 134 86 l 91 43 l 134 1 l 475 1 l 518 43 l 475 86 l 134 86 m 134 885 l 475 885 l 518 928 l 475 970 l 134 970 l 91 928 l 134 885 m 568 94 l 568 94 l 568 435 l 526 478 l 483 435 l 483 94 l 526 51 l 568 94 m 526 493 l 568 536 l 568 878 l 526 920 l 483 878 l 483 536 l 526 493 "},"B":{"ha":610,"x_min":41,"x_max":569,"o":"m 41 880 l 41 880 l 41 93 l 83 50 l 126 93 l 126 880 l 83 923 l 41 880 m 476 973 l 476 973 l 134 973 l 91 930 l 134 888 l 476 888 l 519 930 l 476 973 m 476 530 l 476 530 l 178 530 l 135 487 l 178 444 l 476 444 l 519 487 l 476 530 m 526 923 l 526 923 l 483 880 l 483 537 l 526 494 l 569 537 l 569 880 l 526 923 m 526 479 l 526 479 l 483 437 l 483 93 l 526 50 l 569 93 l 569 437 l 526 479 m 476 86 l 476 86 l 134 86 l 91 43 l 134 0 l 476 0 l 519 43 l 476 86 m 483 537 l 483 537 l 526 494 l 569 537 l 569 880 l 526 923 l 483 880 l 483 537 "},"C":{"ha":560,"x_min":41,"x_max":519,"o":"m 41 879 l 41 879 l 41 536 l 84 493 l 127 536 l 127 879 l 84 922 l 41 879 m 477 972 l 477 972 l 134 972 l 91 929 l 134 886 l 477 886 l 519 929 l 477 972 m 477 85 l 477 85 l 134 85 l 91 43 l 134 0 l 477 0 l 519 43 l 477 85 m 127 436 l 127 436 l 84 479 l 41 436 l 41 93 l 84 50 l 127 93 l 127 436 "},"D":{"ha":611,"x_min":41,"x_max":593,"o":"m 41 879 l 41 93 l 85 50 l 127 93 l 127 879 l 85 922 l 41 879 m 315 972 l 315 972 l 135 972 l 92 929 l 135 886 l 315 886 l 358 929 l 315 972 m 368 922 l 326 879 l 507 492 l 593 493 l 414 879 l 368 922 m 315 1 l 315 1 l 135 1 l 92 43 l 135 86 l 315 86 l 358 43 l 315 1 m 368 51 l 325 94 l 507 480 l 591 479 l 414 94 l 368 51 "},"E":{"ha":560,"x_min":41,"x_max":519,"o":"m 41 879 l 41 879 l 41 536 l 83 493 l 126 536 l 126 879 l 83 922 l 41 879 m 476 972 l 476 972 l 134 972 l 91 929 l 134 886 l 476 886 l 519 929 l 476 972 m 476 529 l 476 529 l 134 529 l 91 486 l 134 443 l 476 443 l 519 486 l 476 529 m 476 85 l 476 85 l 134 85 l 91 43 l 134 0 l 476 0 l 519 43 l 476 85 m 126 436 l 126 436 l 83 479 l 41 436 l 41 93 l 83 50 l 126 93 l 126 436 "},"A":{"ha":608,"x_min":41,"x_max":568,"o":"m 41 876 l 41 534 l 83 491 l 126 534 l 126 876 l 83 918 l 41 876 m 134 526 l 91 484 l 134 441 l 475 441 l 518 484 l 475 526 l 134 526 m 91 926 l 134 883 l 475 883 l 518 926 l 475 968 l 134 968 l 91 926 m 568 534 l 568 876 l 525 918 l 482 876 l 482 534 l 525 491 l 568 534 m 126 42 l 126 434 l 83 477 l 41 434 l 41 42 l 83 -1 l 126 42 m 482 434 l 482 42 l 525 -1 l 568 42 l 568 434 l 525 477 l 482 434 "},"F":{"ha":561,"x_min":41,"x_max":520,"o":"m 41 880 l 41 880 l 41 537 l 84 494 l 127 537 l 127 880 l 84 923 l 41 880 m 477 973 l 477 973 l 134 973 l 91 930 l 134 888 l 477 888 l 520 930 l 477 973 m 477 530 l 477 530 l 134 530 l 91 487 l 134 444 l 477 444 l 520 487 l 477 530 m 127 437 l 127 437 l 84 479 l 41 437 l 41 43 l 84 0 l 127 43 l 127 437 "},"G":{"ha":610,"x_min":41,"x_max":570,"o":"m 41 879 l 41 879 l 41 536 l 83 493 l 126 536 l 126 879 l 83 922 l 41 879 m 476 972 l 476 972 l 134 972 l 91 929 l 134 886 l 476 886 l 519 929 l 476 972 m 476 529 l 476 529 l 348 529 l 305 486 l 348 443 l 476 443 l 519 486 l 476 529 m 526 479 l 526 479 l 484 435 l 484 93 l 526 50 l 570 93 l 570 435 l 526 479 m 476 85 l 476 85 l 134 85 l 91 43 l 134 0 l 476 0 l 519 43 l 476 85 m 126 435 l 126 435 l 83 479 l 41 435 l 41 93 l 83 50 l 126 93 l 126 435 "},"H":{"ha":608,"x_min":41,"x_max":568,"o":"m 475 528 l 475 528 l 134 528 l 91 486 l 134 444 l 475 444 l 518 486 l 475 528 m 568 536 l 568 928 l 525 970 l 482 928 l 482 536 l 525 493 l 568 536 m 482 436 l 482 44 l 525 1 l 568 44 l 568 436 l 525 479 l 482 436 m 126 436 l 83 479 l 41 436 l 41 44 l 83 1 l 126 44 l 126 436 m 41 536 l 83 493 l 126 536 l 126 928 l 83 970 l 41 928 l 41 536 "},"I":{"ha":168,"x_min":41,"x_max":127,"o":"m 127 536 l 127 930 l 83 972 l 41 930 l 41 536 l 83 494 l 127 536 m 127 436 l 83 479 l 41 436 l 41 43 l 83 0 l 127 43 l 127 436 "},"J":{"ha":561,"x_min":41,"x_max":520,"o":"m 434 437 l 434 437 l 477 479 l 520 437 l 520 93 l 477 50 l 434 93 l 434 437 m 427 86 l 427 86 l 83 86 l 41 43 l 83 0 l 427 0 l 470 43 l 427 86 m 434 537 l 477 494 l 520 537 l 520 930 l 477 973 l 434 930 l 434 537 "},"K":{"ha":606,"x_min":41,"x_max":565,"o":"m 123 40 l 123 420 l 81 469 l 41 429 l 41 43 l 83 0 l 123 40 m 505 929 l 505 929 l 90 490 l 207 490 l 565 869 l 565 929 l 505 929 m 505 0 l 565 0 l 565 60 l 204 477 l 90 479 l 505 0 m 41 539 l 83 497 l 125 542 l 125 928 l 83 971 l 41 928 l 41 539 "},"L":{"ha":560,"x_min":41,"x_max":519,"o":"m 41 93 l 83 50 l 126 93 l 126 436 l 83 479 l 41 436 l 41 93 m 91 43 l 134 0 l 476 0 l 519 43 l 476 85 l 134 85 l 91 43 m 83 493 l 126 536 l 126 929 l 83 972 l 41 929 l 41 536 l 83 493 "},"M":{"ha":609,"x_min":41,"x_max":568,"o":"m 568 535 l 568 877 l 526 920 l 483 877 l 483 535 l 526 492 l 568 535 m 483 435 l 526 478 l 568 435 l 568 43 l 526 0 l 483 43 l 483 435 m 41 435 l 83 478 l 126 435 l 126 43 l 83 0 l 41 43 l 41 435 m 41 535 l 83 492 l 126 535 l 126 877 l 83 920 l 41 877 l 41 535 m 134 970 l 134 970 l 91 927 l 134 884 l 254 884 l 297 927 l 254 970 l 134 970 m 475 970 l 475 970 l 355 970 l 312 927 l 355 884 l 475 884 l 519 927 l 475 970 m 347 535 l 304 492 l 262 535 l 262 877 l 304 920 l 347 877 l 347 535 "},"N":{"ha":610,"x_min":41,"x_max":569,"o":"m 83 493 l 83 493 l 126 536 l 126 878 l 83 921 l 41 878 l 41 536 l 83 493 m 569 878 l 526 921 l 484 878 l 484 536 l 526 493 l 569 536 l 569 878 m 476 886 l 519 928 l 476 971 l 134 971 l 91 928 l 134 886 l 476 886 m 83 478 l 41 435 l 41 43 l 83 0 l 126 43 l 126 435 l 83 478 m 526 478 l 484 435 l 484 43 l 526 0 l 569 43 l 569 435 l 526 478 "},"O":{"ha":610,"x_min":41,"x_max":569,"o":"m 83 50 l 83 50 l 126 93 l 126 878 l 83 921 l 41 878 l 41 93 l 83 50 m 91 43 l 91 43 l 134 85 l 476 85 l 519 43 l 476 0 l 134 0 l 91 43 m 526 50 l 526 50 l 484 93 l 484 878 l 526 921 l 569 878 l 569 93 l 526 50 m 476 971 l 476 971 l 134 971 l 91 928 l 134 886 l 476 886 l 519 928 l 476 971 "},"P":{"ha":608,"x_min":41,"x_max":568,"o":"m 83 492 l 83 492 l 126 534 l 126 876 l 83 918 l 41 876 l 41 534 l 83 492 m 91 484 l 91 484 l 134 441 l 475 441 l 517 484 l 475 527 l 134 527 l 91 484 m 475 968 l 475 968 l 134 968 l 91 926 l 134 883 l 475 883 l 517 926 l 475 968 m 525 918 l 525 918 l 482 876 l 482 534 l 525 492 l 568 534 l 568 876 l 525 918 m 126 434 l 83 477 l 41 434 l 41 43 l 83 0 l 126 43 l 126 434 "},"Q":{"ha":610,"x_min":41,"x_max":569,"o":"m 41 435 l 41 435 l 83 478 l 126 435 l 126 93 l 83 50 l 41 93 l 41 435 m 83 493 l 83 493 l 126 536 l 126 878 l 83 921 l 41 878 l 41 536 l 83 493 m 90 43 l 90 43 l 134 85 l 408 85 l 451 43 l 408 0 l 134 0 l 90 43 m 476 971 l 476 971 l 134 971 l 90 928 l 134 886 l 476 886 l 519 928 l 476 971 m 526 921 l 526 921 l 483 878 l 483 536 l 526 493 l 569 536 l 569 878 l 526 921 m 483 435 l 483 435 l 483 161 l 526 118 l 569 161 l 569 435 l 526 478 l 483 435 m 569 161 l 569 161 l 569 435 l 526 478 l 483 435 l 483 161 l 526 118 l 569 161 m 569 60 l 478 151 l 417 151 l 417 91 l 508 0 l 569 0 l 569 60 "},"R":{"ha":610,"x_min":41,"x_max":570,"o":"m 41 536 l 41 536 l 83 493 l 126 536 l 126 879 l 83 922 l 41 879 l 41 536 m 134 529 l 134 529 l 91 486 l 134 443 l 476 443 l 519 486 l 476 529 l 134 529 m 91 929 l 91 929 l 134 886 l 476 886 l 519 929 l 476 972 l 134 972 l 91 929 m 570 536 l 570 536 l 526 493 l 484 536 l 484 879 l 526 922 l 570 879 l 570 536 m 197 433 l 197 433 l 570 60 l 570 0 l 509 0 l 137 372 l 137 433 l 197 433 m 126 436 l 83 479 l 41 436 l 41 43 l 83 0 l 126 43 l 126 436 "},"T":{"ha":595,"x_min":41,"x_max":554,"o":"m 297 494 l 340 536 l 340 878 l 297 921 l 254 878 l 254 536 l 297 494 m 347 886 l 511 886 l 554 928 l 511 971 l 347 971 l 304 928 l 347 886 m 41 928 l 41 928 l 83 886 l 248 886 l 290 928 l 248 971 l 83 971 l 41 928 m 297 479 l 254 436 l 254 44 l 297 1 l 340 44 l 340 436 l 297 479 "},"S":{"ha":610,"x_min":41,"x_max":570,"o":"m 41 879 l 41 879 l 41 536 l 83 493 l 126 536 l 126 879 l 83 922 l 41 879 m 134 529 l 134 529 l 91 486 l 134 443 l 476 443 l 519 486 l 476 529 l 134 529 m 476 886 l 519 929 l 476 972 l 134 972 l 91 929 l 134 886 l 476 886 m 484 436 l 484 93 l 526 50 l 570 93 l 570 436 l 526 479 l 484 436 m 476 85 l 476 85 l 134 85 l 91 43 l 134 0 l 476 0 l 519 43 l 476 85 "},"U":{"ha":609,"x_min":41,"x_max":568,"o":"m 568 435 l 568 435 l 526 477 l 483 435 l 483 93 l 526 50 l 568 93 l 568 435 m 41 93 l 83 50 l 126 93 l 126 435 l 83 477 l 41 435 l 41 93 m 91 43 l 134 0 l 475 0 l 518 43 l 475 85 l 134 85 l 91 43 m 41 927 l 41 535 l 83 492 l 126 535 l 126 927 l 83 970 l 41 927 m 526 492 l 568 535 l 568 927 l 526 970 l 483 927 l 483 535 l 526 492 "},"V":{"ha":609,"x_min":41,"x_max":568,"o":"m 197 0 l 197 0 l 526 417 l 526 478 l 465 478 l 136 61 l 136 0 l 197 0 m 483 927 l 483 535 l 526 492 l 568 535 l 568 927 l 526 970 l 483 927 m 41 927 l 41 535 l 83 492 l 126 535 l 126 927 l 83 970 l 41 927 m 83 478 l 41 435 l 41 43 l 83 1 l 126 43 l 126 435 l 83 478 "},"W":{"ha":609,"x_min":41,"x_max":568,"o":"m 41 535 l 83 492 l 126 535 l 126 927 l 83 970 l 41 927 l 41 535 m 483 535 l 483 927 l 526 970 l 568 927 l 568 535 l 526 492 l 483 535 m 347 435 l 347 93 l 304 50 l 262 93 l 262 435 l 304 477 l 347 435 m 126 435 l 126 93 l 83 50 l 41 93 l 41 435 l 83 477 l 126 435 m 568 435 l 526 477 l 483 435 l 483 93 l 526 50 l 568 93 l 568 435 m 134 0 l 134 0 l 91 43 l 134 85 l 254 85 l 297 43 l 254 0 l 134 0 m 475 0 l 475 0 l 355 0 l 312 43 l 355 85 l 475 85 l 518 43 l 475 0 "},"X":{"ha":610,"x_min":41,"x_max":570,"o":"m 234 496 l 295 496 l 295 557 l 101 972 l 41 972 l 41 911 l 234 496 m 366 486 l 305 486 l 305 426 l 509 0 l 570 0 l 570 61 l 366 486 m 305 557 l 305 496 l 366 496 l 570 911 l 570 972 l 509 972 l 305 557 m 295 426 l 295 486 l 234 486 l 41 61 l 41 0 l 101 0 l 295 426 "},"Y":{"ha":610,"x_min":41,"x_max":570,"o":"m 41 910 l 41 910 l 234 495 l 295 495 l 295 555 l 101 970 l 41 970 l 41 910 m 305 555 l 305 555 l 509 970 l 570 970 l 570 910 l 366 495 l 305 495 l 305 555 m 257 437 l 257 437 l 300 480 l 343 437 l 343 44 l 300 1 l 257 44 l 257 437 "},"Z":{"ha":610,"x_min":41,"x_max":570,"o":"m 41 43 l 41 43 l 83 86 l 527 86 l 570 43 l 527 0 l 83 0 l 41 43 m 527 972 l 527 972 l 83 972 l 41 930 l 83 887 l 527 887 l 570 930 l 527 972 m 467 877 l 467 877 l 83 157 l 83 94 l 147 94 l 530 814 l 530 877 l 467 877 "},"a":{"ha":604,"x_min":41,"x_max":564,"o":"m 471 439 l 514 481 l 471 524 l 133 524 l 90 481 l 133 439 l 471 439 m 479 432 l 479 43 l 521 1 l 564 43 l 564 432 l 521 475 l 479 432 m 383 86 l 133 86 l 90 43 l 133 1 l 383 1 l 426 43 l 383 86 m 41 93 l 83 51 l 125 93 l 125 432 l 83 475 l 41 432 l 41 93 "},"b":{"ha":607,"x_min":41,"x_max":566,"o":"m 41 433 l 41 433 l 83 475 l 126 433 l 126 92 l 83 50 l 41 92 l 41 433 m 90 483 l 90 483 l 133 440 l 473 440 l 516 483 l 473 526 l 133 526 l 90 483 m 41 873 l 41 873 l 41 532 l 83 490 l 126 532 l 126 873 l 83 916 l 41 873 m 566 433 l 566 433 l 524 475 l 481 433 l 481 92 l 524 50 l 566 92 l 566 433 m 473 85 l 473 85 l 133 85 l 90 43 l 133 0 l 473 0 l 516 43 l 473 85 "},"c":{"ha":555,"x_min":41,"x_max":514,"o":"m 514 480 l 471 523 l 133 523 l 90 480 l 133 438 l 471 438 l 514 480 m 471 85 l 471 85 l 133 85 l 90 42 l 133 0 l 471 0 l 514 42 l 471 85 m 41 431 l 41 92 l 83 50 l 125 92 l 125 431 l 83 473 l 41 431 "},"d":{"ha":604,"x_min":41,"x_max":564,"o":"m 564 92 l 564 92 l 564 431 l 521 473 l 479 431 l 479 92 l 521 50 l 564 92 m 471 85 l 471 85 l 133 85 l 90 43 l 133 0 l 471 0 l 514 43 l 471 85 m 479 869 l 479 869 l 479 530 l 521 488 l 564 530 l 564 869 l 521 911 l 479 869 m 514 481 l 514 481 l 471 438 l 133 438 l 90 481 l 133 523 l 471 523 l 514 481 m 125 92 l 125 92 l 125 431 l 83 473 l 41 431 l 41 92 l 83 50 l 125 92 "},"e":{"ha":604,"x_min":41,"x_max":564,"o":"m 471 523 l 471 523 l 133 523 l 90 480 l 133 438 l 471 438 l 514 480 l 471 523 m 471 85 l 471 85 l 133 85 l 90 43 l 133 0 l 471 0 l 514 43 l 471 85 m 125 92 l 125 92 l 125 431 l 83 473 l 41 431 l 41 92 l 83 50 l 125 92 m 471 212 l 471 212 l 178 212 l 136 254 l 178 297 l 471 297 l 514 254 l 471 212 m 564 431 l 564 304 l 521 262 l 479 304 l 479 431 l 521 473 l 564 431 "},"f":{"ha":453,"x_min":41,"x_max":412,"o":"m 41 45 l 83 3 l 125 45 l 125 384 l 83 427 l 41 384 l 41 45 m 41 822 l 41 822 l 41 483 l 83 441 l 125 483 l 125 822 l 83 864 l 41 822 m 370 914 l 133 914 l 90 871 l 133 829 l 370 829 l 412 871 l 370 914 m 133 391 l 260 391 l 302 433 l 260 476 l 133 476 l 90 433 l 133 391 "},"g":{"ha":604,"x_min":41,"x_max":564,"o":"m 125 431 l 125 431 l 125 92 l 83 50 l 41 92 l 41 431 l 83 473 l 125 431 m 90 481 l 90 481 l 133 438 l 471 438 l 514 481 l 471 523 l 133 523 l 90 481 m 90 43 l 90 43 l 133 0 l 471 0 l 514 43 l 471 85 l 133 85 l 90 43 m 90 -311 l 90 -311 l 133 -269 l 471 -269 l 514 -311 l 471 -353 l 133 -353 l 90 -311 m 479 -261 l 479 -261 l 479 -7 l 521 35 l 564 -7 l 564 -261 l 521 -303 l 479 -261 m 479 92 l 479 92 l 521 50 l 564 92 l 564 431 l 521 473 l 479 431 l 479 92 "},"h":{"ha":604,"x_min":41,"x_max":564,"o":"m 133 475 l 133 475 l 90 433 l 133 390 l 471 390 l 514 433 l 471 475 l 133 475 m 83 425 l 83 425 l 125 382 l 125 44 l 83 1 l 41 44 l 41 382 l 83 425 m 521 425 l 521 425 l 479 382 l 479 44 l 521 1 l 564 44 l 564 382 l 521 425 m 125 482 l 125 870 l 83 913 l 41 870 l 41 482 l 83 439 l 125 482 "},"i":{"ha":164,"x_min":41,"x_max":123,"o":"m 41 45 l 41 45 l 83 3 l 123 43 l 123 488 l 81 528 l 41 488 l 41 45 m 82 713 l 82 713 l 41 671 l 41 630 l 82 589 l 123 630 l 123 671 l 82 713 "},"j":{"ha":453,"x_min":41,"x_max":412,"o":"m 328 78 l 328 78 l 370 120 l 412 78 l 412 -261 l 370 -304 l 328 -261 l 328 78 m 328 177 l 328 177 l 370 134 l 412 177 l 412 483 l 370 525 l 328 483 l 328 177 m 83 -269 l 320 -269 l 363 -312 l 320 -354 l 83 -354 l 41 -312 l 83 -269 "},"l":{"ha":166,"x_min":41,"x_max":125,"o":"m 41 869 l 41 869 l 41 42 l 83 0 l 125 42 l 125 869 l 83 911 l 41 869 "},"m":{"ha":606,"x_min":41,"x_max":565,"o":"m 134 527 l 92 485 l 134 442 l 254 442 l 296 485 l 254 527 l 134 527 m 473 527 l 473 527 l 353 527 l 311 485 l 353 442 l 473 442 l 515 485 l 473 527 m 303 477 l 261 435 l 261 47 l 303 4 l 346 47 l 346 435 l 303 477 m 83 480 l 41 438 l 41 50 l 83 7 l 125 50 l 125 438 l 83 480 m 522 476 l 480 433 l 480 45 l 522 3 l 565 45 l 565 433 l 522 476 "},"n":{"ha":604,"x_min":41,"x_max":564,"o":"m 471 439 l 514 482 l 471 524 l 133 524 l 90 482 l 133 439 l 471 439 m 521 475 l 479 433 l 479 44 l 521 1 l 564 44 l 564 433 l 521 475 m 83 476 l 41 434 l 41 45 l 83 3 l 125 45 l 125 434 l 83 476 "},"o":{"ha":604,"x_min":41,"x_max":564,"o":"m 41 433 l 41 433 l 83 475 l 125 433 l 125 94 l 83 51 l 41 94 l 41 433 m 90 482 l 90 482 l 133 439 l 471 439 l 514 482 l 471 524 l 133 524 l 90 482 m 521 475 l 521 475 l 479 433 l 479 94 l 521 51 l 564 94 l 564 433 l 521 475 m 90 44 l 90 44 l 133 86 l 471 86 l 514 44 l 471 1 l 133 1 l 90 44 "},"p":{"ha":604,"x_min":41,"x_max":564,"o":"m 471 439 l 514 481 l 471 524 l 133 524 l 90 481 l 133 439 l 471 439 m 479 432 l 479 432 l 479 93 l 521 51 l 564 93 l 564 432 l 521 475 l 479 432 m 471 1 l 514 43 l 471 86 l 133 86 l 90 43 l 133 1 l 471 1 m 41 93 l 41 93 l 83 51 l 125 93 l 125 432 l 83 475 l 41 432 l 41 93 m 83 36 l 41 -6 l 41 -312 l 83 -354 l 125 -312 l 125 -6 l 83 36 "},"q":{"ha":604,"x_min":41,"x_max":564,"o":"m 133 1 l 133 1 l 90 43 l 133 86 l 471 86 l 514 43 l 471 1 l 133 1 m 564 -312 l 564 -6 l 521 36 l 479 -6 l 479 -312 l 521 -354 l 564 -312 m 41 432 l 41 432 l 41 93 l 83 51 l 125 93 l 125 432 l 83 475 l 41 432 m 90 481 l 90 481 l 133 439 l 471 439 l 514 481 l 471 524 l 133 524 l 90 481 m 479 432 l 479 432 l 479 93 l 521 51 l 564 93 l 564 432 l 521 475 l 479 432 "},"r":{"ha":555,"x_min":41,"x_max":514,"o":"m 471 438 l 514 481 l 471 523 l 133 523 l 90 481 l 133 438 l 471 438 m 125 43 l 125 431 l 83 473 l 41 431 l 41 43 l 83 0 l 125 43 "},"s":{"ha":604,"x_min":41,"x_max":564,"o":"m 471 523 l 471 523 l 133 523 l 90 481 l 133 438 l 471 438 l 514 481 l 471 523 m 471 220 l 471 220 l 133 220 l 90 263 l 133 306 l 471 306 l 514 263 l 471 220 m 471 85 l 471 85 l 133 85 l 90 43 l 133 0 l 471 0 l 514 43 l 471 85 m 125 431 l 83 473 l 41 431 l 41 313 l 83 271 l 125 313 l 125 431 m 479 214 l 479 92 l 521 50 l 564 92 l 564 214 l 521 256 l 479 214 "},"t":{"ha":590,"x_min":41,"x_max":549,"o":"m 295 490 l 337 533 l 337 872 l 295 914 l 252 872 l 252 533 l 295 490 m 245 441 l 245 441 l 288 483 l 245 526 l 83 526 l 41 483 l 83 441 l 245 441 m 507 441 l 549 483 l 507 526 l 345 526 l 302 483 l 345 441 l 507 441 m 252 433 l 252 45 l 295 3 l 337 45 l 337 433 l 295 476 l 252 433 "},"u":{"ha":604,"x_min":41,"x_max":564,"o":"m 133 1 l 471 1 l 514 43 l 471 86 l 133 86 l 90 43 l 133 1 m 83 51 l 125 93 l 125 481 l 83 524 l 41 481 l 41 93 l 83 51 m 521 51 l 564 93 l 564 481 l 521 524 l 479 481 l 479 93 l 521 51 "},"v":{"ha":563,"x_min":41,"x_max":522,"o":"m 125 45 l 125 482 l 83 524 l 41 482 l 41 45 l 83 2 l 125 45 m 136 62 l 136 1 l 196 1 l 522 464 l 522 524 l 462 524 l 136 62 "},"w":{"ha":604,"x_min":41,"x_max":564,"o":"m 133 1 l 252 1 l 295 44 l 252 86 l 133 86 l 90 44 l 133 1 m 471 1 l 471 1 l 514 44 l 471 86 l 352 86 l 309 44 l 352 1 l 471 1 m 83 51 l 125 94 l 125 482 l 83 524 l 41 482 l 41 94 l 83 51 m 302 51 l 345 94 l 345 482 l 302 524 l 260 482 l 260 94 l 302 51 m 521 51 l 564 94 l 564 482 l 521 524 l 479 482 l 479 94 l 521 51 "},"x":{"ha":604,"x_min":41,"x_max":564,"o":"m 563 0 l 563 60 l 367 256 l 307 256 l 307 197 l 503 0 l 563 0 m 296 267 l 297 327 l 100 523 l 41 523 l 41 463 l 237 267 l 296 267 m 41 60 l 41 1 l 100 1 l 297 197 l 297 257 l 237 257 l 41 60 m 307 197 l 503 0 l 563 0 l 563 60 l 367 256 l 307 256 l 307 197 m 307 267 l 367 267 l 564 463 l 563 523 l 503 523 l 307 327 l 307 267 "},"y":{"ha":604,"x_min":41,"x_max":564,"o":"m 521 37 l 479 -5 l 479 -259 l 521 -302 l 564 -259 l 564 -5 l 521 37 m 133 -267 l 90 -309 l 133 -351 l 471 -351 l 514 -309 l 471 -267 l 133 -267 m 564 91 l 564 479 l 521 522 l 479 479 l 479 91 l 521 49 l 564 91 m 471 -1 l 514 41 l 471 84 l 133 84 l 90 41 l 133 -1 l 471 -1 m 125 479 l 83 522 l 41 479 l 41 91 l 83 49 l 125 91 l 125 479 "},"z":{"ha":606,"x_min":41,"x_max":565,"o":"m 463 434 l 463 434 l 85 157 l 85 98 l 146 98 l 524 374 l 524 434 l 463 434 m 83 87 l 83 87 l 41 45 l 83 3 l 521 3 l 564 45 l 521 87 l 83 87 m 522 444 l 565 487 l 522 529 l 85 529 l 42 487 l 85 444 l 522 444 "},"k":{"ha":595,"x_min":41,"x_max":554,"o":"m 87 308 l 87 308 l 242 308 l 497 466 l 497 525 l 438 525 l 87 308 m 87 301 l 87 301 l 495 0 l 554 0 l 554 59 l 227 301 l 87 301 m 83 296 l 83 296 l 124 264 l 124 45 l 83 3 l 41 45 l 41 254 l 83 296 m 41 874 l 41 354 l 83 313 l 124 338 l 124 874 l 83 916 l 41 874 "},"*":{"ha":488,"x_min":41,"x_max":448,"o":"m 370 581 l 370 581 l 314 590 l 252 675 l 252 743 l 317 722 l 379 637 l 370 581 m 236 675 l 236 675 l 174 590 l 118 581 l 109 637 l 171 722 l 236 743 l 236 675 m 231 759 l 231 759 l 191 814 l 91 846 l 41 821 l 66 770 l 166 738 l 231 759 m 244 768 l 244 768 l 284 823 l 284 928 l 244 968 l 204 928 l 204 823 l 244 768 m 448 821 l 448 821 l 422 770 l 322 738 l 257 759 l 297 814 l 397 846 l 448 821 "},"!":{"ha":161,"x_min":41,"x_max":121,"o":"m 81 120 l 81 120 l 41 80 l 41 40 l 81 0 l 121 40 l 121 80 l 81 120 m 41 933 l 41 230 l 81 190 l 121 230 l 121 933 l 81 973 l 41 933 "},"?":{"ha":474,"x_min":27,"x_max":475,"o":"m 27 932 l 27 932 l 67 892 l 388 892 l 428 932 l 388 972 l 67 972 l 27 932 m 388 478 l 388 478 l 113 478 l 73 518 l 113 558 l 388 558 l 428 518 l 388 478 m 395 886 l 395 886 l 395 565 l 435 525 l 475 565 l 475 886 l 435 926 l 395 886 m 67 510 l 67 510 l 107 470 l 107 289 l 67 249 l 27 289 l 27 470 l 67 510 m 67 120 l 67 120 l 27 80 l 27 40 l 67 0 l 107 40 l 107 80 l 67 120 "},".":{"ha":161,"x_min":41,"x_max":121,"o":"m 81 121 l 81 121 l 41 81 l 41 41 l 81 1 l 121 41 l 121 81 l 81 121 "},":":{"ha":161,"x_min":41,"x_max":121,"o":"m 81 121 l 81 121 l 41 81 l 41 41 l 81 1 l 121 41 l 121 81 l 81 121 m 81 644 l 81 644 l 41 604 l 41 564 l 81 524 l 121 564 l 121 604 l 81 644 "},";":{"ha":207,"x_min":41,"x_max":166,"o":"m 125 646 l 125 646 l 85 606 l 85 566 l 125 526 l 165 566 l 165 606 l 125 646 m 90 96 l 90 96 l 140 121 l 166 71 l 117 -81 l 66 -107 l 41 -56 l 90 96 "},",":{"ha":207,"x_min":41,"x_max":166,"o":"m 90 96 l 90 96 l 41 -56 l 66 -107 l 117 -81 l 166 71 l 140 121 l 90 96 "},"-":{"ha":482,"x_min":41,"x_max":441,"o":"m 41 335 l 41 335 l 81 295 l 401 295 l 441 335 l 401 375 l 81 375 l 41 335 "},"=":{"ha":529,"x_min":0,"x_max":529,"o":"m 40 444 l 489 444 l 529 484 l 489 524 l 40 524 l 0 484 l 40 444 m 40 302 l 40 302 l 0 262 l 40 222 l 489 222 l 529 262 l 489 302 l 40 302 m 40 444 l 489 444 l 529 484 l 489 524 l 40 524 l 0 484 l 40 444 m 40 302 l 40 302 l 0 262 l 40 222 l 489 222 l 529 262 l 489 302 l 40 302 "},"+":{"ha":509,"x_min":0,"x_max":509,"o":"m 205 323 l 247 366 l 205 408 l 42 408 l 0 366 l 42 323 l 205 323 m 304 323 l 466 323 l 509 366 l 466 408 l 304 408 l 261 366 l 304 323 m 212 316 l 212 154 l 254 111 l 296 154 l 296 316 l 254 359 l 212 316 m 212 578 l 212 416 l 254 373 l 296 416 l 296 578 l 254 621 l 212 578 "},"&":{"ha":717,"x_min":41,"x_max":676,"o":"m 85 406 l 43 363 l 43 93 l 85 50 l 128 93 l 128 363 l 85 406 m 85 542 l 128 585 l 128 808 l 85 850 l 43 808 l 43 585 l 85 542 m 136 85 l 92 43 l 136 0 l 405 0 l 448 43 l 405 85 l 136 85 m 571 60 l 102 530 l 41 530 l 41 469 l 510 0 l 571 0 l 571 60 m 615 331 l 498 214 l 498 153 l 559 153 l 676 271 l 676 331 l 615 331 m 387 802 l 178 534 l 178 474 l 239 474 l 448 741 l 448 802 l 387 802 m 136 901 l 92 858 l 136 815 l 405 815 l 448 858 l 405 901 l 136 901 "},"‘":{"ha":208,"x_min":41,"x_max":167,"o":"m 41 975 l 41 975 l 90 822 l 141 796 l 167 847 l 117 1000 l 66 1025 l 41 975 "},"’":{"ha":207,"x_min":41,"x_max":166,"o":"m 90 998 l 90 998 l 41 846 l 66 795 l 117 821 l 166 973 l 140 1024 l 90 998 "},"“":{"ha":334,"x_min":41,"x_max":294,"o":"m 168 972 l 217 820 l 268 794 l 294 844 l 244 997 l 193 1023 l 168 972 m 41 972 l 90 820 l 141 794 l 167 844 l 117 997 l 66 1023 l 41 972 "},"”":{"ha":334,"x_min":41,"x_max":294,"o":"m 141 1023 l 90 998 l 41 845 l 66 794 l 117 820 l 167 972 l 141 1023 m 217 998 l 168 845 l 193 794 l 244 820 l 294 972 l 268 1023 l 217 998 "},"´":{"ha":207,"x_min":41,"x_max":166,"o":"m 140 1024 l 90 998 l 41 846 l 66 795 l 117 821 l 166 973 l 140 1024 "},"„":{"ha":334,"x_min":41,"x_max":294,"o":"m 167 70 l 141 121 l 90 95 l 41 -58 l 66 -109 l 117 -83 l 167 70 m 268 121 l 217 95 l 168 -58 l 193 -109 l 244 -83 l 294 70 l 268 121 "}," ":{"ha":373,"x_min":0,"x_max":0,"o":""},"'":{"ha":164,"x_min":41,"x_max":123,"o":"m 82 975 l 41 933 l 41 825 l 82 784 l 123 825 l 123 933 l 82 975 "},"\"":{"ha":264,"x_min":41,"x_max":224,"o":"m 82 1015 l 41 974 l 41 865 l 82 825 l 123 865 l 123 974 l 82 1015 m 182 1011 l 141 970 l 141 861 l 182 821 l 224 861 l 224 970 l 182 1011 "}}}
